<svg xmlns="http://www.w3.org/2000/svg" width="25" height="25" fill="none"><path fill="#fff" d="M15.463 20.833H6.771a2.606 2.606 0 0 1-2.604-2.604 2.606 2.606 0 0 1 2.604-2.604h7.292a3.65 3.65 0 0 0 3.646-3.646 3.65 3.65 0 0 0-3.646-3.646H9a10.22 10.22 0 0 1-1.41 2.083h6.473c.862 0 1.563.701 1.563 1.563 0 .861-.701 1.562-1.563 1.562H6.771a4.693 4.693 0 0 0-4.687 4.688 4.693 4.693 0 0 0 4.687 4.687h9.993a10.847 10.847 0 0 1-1.3-2.083ZM5.21 2.083a3.129 3.129 0 0 0-3.125 3.125c0 3.32 3.125 5.208 3.125 5.208s3.125-1.888 3.125-5.208a3.129 3.129 0 0 0-3.125-3.125Zm0 4.688a1.563 1.563 0 1 1 .001-3.127 1.563 1.563 0 0 1-.001 3.127Z"/><path fill="#fff" d="M19.791 14.583a3.129 3.129 0 0 0-3.125 3.125c0 3.32 3.125 5.208 3.125 5.208s3.125-1.888 3.125-5.208a3.129 3.129 0 0 0-3.125-3.125Zm0 4.687a1.564 1.564 0 1 1 .002-3.128 1.564 1.564 0 0 1-.002 3.128Z"/></svg>