<svg xmlns="http://www.w3.org/2000/svg" width="46" height="34" fill="none"><path fill="#fff" d="M41.75 32.188a1.563 1.563 0 0 1-1.562 1.562H12.063a1.563 1.563 0 1 1 0-3.125h28.125a1.562 1.562 0 0 1 1.563 1.563ZM38.627 9.53H28.04L19.66.411a.762.762 0 0 0-.566-.255h-3.3a2.266 2.266 0 0 0-1.895.977 2.325 2.325 0 0 0-.332 2.11l2.11 6.288h-4.805L7.2 5.117a.8.8 0 0 0-.606-.273H3.235a2.363 2.363 0 0 0-1.894.937 2.324 2.324 0 0 0-.352 2.07l2.734 9.16a6.992 6.992 0 0 0 6.739 5.02h34.414a.78.78 0 0 0 .78-.78v-4.688a7.031 7.031 0 0 0-7.03-7.032Z"/></svg>