<svg xmlns="http://www.w3.org/2000/svg" width="48" height="48" fill="none"><path fill="#fff" d="M45.348 41.321c2.032-2.94 2.09-5.4 2.09-5.4s-1.156-.741-2.173-1.398v-8.2l-7.642-7.447v-5.147c.099-.034.198-.065.293-.11.458.217.959.33 1.465.33a3.517 3.517 0 0 0 3.516-3.51A3.517 3.517 0 0 0 39.38 6.93c-.505 0-.997.112-1.465.33a3.433 3.433 0 0 0-1.464-.33c-2.09 0-3.059 1.2-3.39 2.11a2.784 2.784 0 0 0-2.324 2.74c0 .043.009.084.012.127-.055.031-.106.073-.16.11l-1.756-1.713V7.537a3.312 3.312 0 0 0 1.026-.285c.468.22.96.33 1.465.33a3.517 3.517 0 0 0 3.516-3.509 3.52 3.52 0 0 0-3.517-3.51c-.499 0-.999.114-1.465.33a3.47 3.47 0 0 0-1.465-.33c-2.088 0-3.058 1.199-3.388 2.107a2.781 2.781 0 0 0-2.028 1.505 6.67 6.67 0 0 0-1.912 1.09l-.435.352v3.13l-4.346-.54-6.226 1.552v2.557l-1.465.366v2.557l-1.465.366v1.573c-.346.03-.69.085-1.027.166-.014.003-.024.011-.036.015-.014.004-.029.004-.042.009-.173.064-4.25 1.616-5.43 5.624 0 0 1.238 5.054 4.691 10.518 1.899 3.004 3.324 6.65 4.204 9.24H.562v4.688h46.876v-4.687h-2.96c.238-.45.524-.928.87-1.43Zm-.864-14.276v.792l-.343-.293v-.446l-16.845-14.88v.883l-.567-.487-1.264-.158V11.6l2.392.299 16.627 15.147ZM22.902 21.11v.712c-.614-.29-1.225-.57-1.832-.842v-.61l2.43.304 20.983 12.996v.352l-.336-.215v-.187l-21.245-12.51Zm19.923 13.7v.477l-3.05-1.488v-.887c1.137.698 2.166 1.34 3.05 1.898Zm-3.417-2.122v.932l-1.344-.657v-1.09c.462.279.91.55 1.344.815Zm-1.71-1.035v1.132l-3.346-1.632v-1.475c1.168.678 2.291 1.34 3.346 1.975Zm-3.713-2.186v1.507l-1.415-.69v-1.626c.48.271.951.54 1.415.809Zm-1.78-1.018v1.656l-3.98-1.941V26.26c1.352.722 2.687 1.457 3.98 2.187Zm-4.346-2.382v1.918l-1.586-.774v-1.976c.53.275 1.06.551 1.586.832Zm-6.275-1.143v-1.996c1.43.666 2.878 1.38 4.322 2.12v1.984l-4.322-2.108Zm.153 2.176c-.05.003-.106.003-.152.009v-.078l.152.07ZM16.2 18.988a42.417 42.417 0 0 0-3.536-1.13l10.83 1.351 10.579 7.092-10.234-6.338-7.639-.976Zm4.27 1.306-.972-.001-.399-.17 1.37.171Zm-8.58-3.319-1.517.379c-.26-.044-.506-.073-.753-.104l3.784-.944 8.54 1.065H15.07l-3.18-.396Zm32.244 15.13v-.485L24.366 17.852v1.002l-.514-.346-.078-.051-1.239-.155v-.858l2.419.302 19.53 13.715v.877l-.35-.234Zm-.032-2.3v-.54l-18.27-14.221v.93l-.581-.44L24 15.38v-.856l2.405.3 18.079 14.43v.84l-.382-.288Zm-7.65-12.072-2.606-2.542c.916.042 1.819.4 2.606 1.166v1.376Zm-2.93-7.56h.505l.074-.5c.01-.064.258-1.571 2.35-1.571.404 0 .798.11 1.17.326l.295.171.295-.17a2.312 2.312 0 0 1 1.17-.327 2.344 2.344 0 0 1 2.344 2.337 2.344 2.344 0 0 1-2.344 2.338 2.312 2.312 0 0 1-1.17-.326l-.295-.171-.294.17c-.113.066-.229.106-.345.15l-.008-.008c-1.014-.987-2.262-1.51-3.606-1.51-.562 0-1.132.1-1.691.281a1.607 1.607 0 0 1 1.55-1.19Zm.14 2.083c.979 0 1.95.361 2.789 1.178v1.461c-1.168-1.136-2.592-1.376-3.933-.998l-1.043-1.017c.697-.387 1.44-.624 2.188-.624Zm-8.197-8.453.496-.006.083-.488c.027-.16.325-1.575 2.35-1.575.413.002.816.115 1.17.326l.295.173.296-.173a2.305 2.305 0 0 1 1.17-.326 2.344 2.344 0 0 1 2.343 2.338 2.344 2.344 0 0 1-2.344 2.337 2.31 2.31 0 0 1-1.17-.326l-.295-.17-.294.17c-.227.131-.474.222-.731.267v-.668l-.355-.345c-.94-.916-2.081-1.425-3.314-1.496.098-.022.199-.035.3-.038Zm-3.662 2.374c.92-.744 2-1.179 3.071-1.179.978 0 1.95.362 2.789 1.179v1.461c-1.758-1.711-4.102-1.422-5.86 0V6.177Zm5.86 2.922v.525l-5.625-.7c1.727-1.265 3.943-1.461 5.625.175ZM10.84 10.37l5.492-1.37 11.516 1.436 6.216 6.063-5.866-5.345-11.914-1.486-5.445 1.359v-.657Zm0 1.462 5.492-1.37 8.539 1.064H18l-3.18-.397-3.98.993v-.29Zm-1.465 1.461 5.492-1.37 11.53 1.438 7.737 6.634-7.414-5.919-11.9-1.484-5.445 1.358v-.657Zm0 1.462 5.492-1.37 8.54 1.064h-6.87l-3.183-.396-3.98.992v-.29Zm-1.465 1.46 5.493-1.369 11.543 1.44 9.192 6.957-8.895-6.246-11.888-1.483-5.444 1.359v-.657H7.91Zm-1.359 16.44c-2.894-4.579-4.16-8.48-4.442-9.424.657-1.949 2.224-3.171 3.305-3.82-.114 2.266-.057 6.982 1.746 12.254a82.436 82.436 0 0 1 1.537 4.978 35.694 35.694 0 0 0-2.146-3.987Zm2.036-1.51C6.657 25.5 6.845 20.406 6.975 18.762a7.407 7.407 0 0 1 1.029-.067c3.264 0 8.087 1.702 13.214 4.064v1.985l-1.248-.609.009 2.17 1.239.56v.325c-.329.12-.428.342-.212.642.45.618 2.05 1.33 3.578 1.588 1.009.172 1.722.1 1.97-.145l1.305.59v.04c-.142.1-.161.251-.023.446.376.53 1.755 1.176 3.085 1.444.593.12 1.067.138 1.385.08l1.395.63c-.017.1.005.2.062.283.328.538 1.58 1.218 2.806 1.518.585.143 1.051.17 1.348.105l1.232.557a.295.295 0 0 0 .061.21c.303.442 1.457 1.03 2.587 1.31.421.106.778.153 1.044.148l1.306.59v-1.294l-.956-.467v-.424c.895.567 1.787 1.141 2.674 1.722-.128.606-.524 1.877-1.749 3.65a15.23 15.23 0 0 0-1.332 2.337H11.563c-.345-2.417-1.141-6.246-2.976-11.606ZM5.11 10.62C4.977 9.5 6.773 8.828 6.773 8.828 5.035 8.74 4.58 10.027 4.58 10.027c-1.453.353-1.372 1.37-1.372 1.37.622-1.077 1.902-.777 1.902-.777Zm.4-5.855c.507-1.005 2.377-.577 2.377-.577-1.4-1.032-2.49-.21-2.49-.21-1.408-.505-1.905.387-1.905.387 1.116-.556 2.017.4 2.017.4Z"/></svg>