<svg xmlns="http://www.w3.org/2000/svg" width="26" height="24" fill="none"><path fill="#000" d="M25.313 5.952 13.83.812a2.08 2.08 0 0 0-1.724 0L.652 5.953C.262 6.13 0 6.597 0 7.125s.262.998.652 1.172L3.09 9.39a7.947 7.947 0 0 0-.997 2.74c-.466.246-.793.825-.793 1.495 0 .505.196.939.485 1.237L.776 22.428c-.066.495.24.947.641.947h2.366c.401 0 .707-.45.64-.946l-1.008-7.566c.29-.299.485-.776.485-1.238 0-.523-.21-.966-.517-1.264.17-.89.52-1.712 1.013-2.388l7.744 3.465a2.08 2.08 0 0 0 1.723 0l11.485-5.14c.392-.178.652-.645.652-1.173s-.26-.995-.687-1.173Zm-11.05 9.014c-.381.188-.82.284-1.263.284a3.17 3.17 0 0 1-1.3-.282L5.801 12.33 5.2 19.582c0 2.097 3.457 3.793 7.8 3.793 4.27 0 7.8-1.696 7.8-3.792l-.6-7.256-5.937 2.639Z"/></svg>