<svg xmlns="http://www.w3.org/2000/svg" width="50" height="50" fill="none"><path fill="#fff" d="M25.795 29.895c.055.225.21.42.429.545.22.125.486.17.743.122h-.007l15.852-3.017c.128-.023.25-.07.356-.136a.898.898 0 0 0 .266-.249l.002-.004a.816.816 0 0 0 .142-.325.772.772 0 0 0-.014-.348l.003.006C39.25 13.637 30.553 3.99 19.688-.01h-.093c-.148 0-.294.03-.428.085a.978.978 0 0 0-.343.24.827.827 0 0 0-.192.345.76.76 0 0 0 0 .384l-.003-.006 7.166 28.858Zm-15.33 3.792 12.52-2.37a1.01 1.01 0 0 0 .622-.372l.003-.004a.732.732 0 0 0 .146-.312.689.689 0 0 0-.018-.338l.003.007-3.988-16.07a.815.815 0 0 0-.279-.443 1.016 1.016 0 0 0-.52-.223h-.004a.618.618 0 0 0-.13-.014h-.037.003c-.172 0-.34.039-.49.113a.936.936 0 0 0-.36.312l-.003.004-.278.416c-3.71 5.513-6.926 10.282-8.381 18.323a.772.772 0 0 0 .04.412.87.87 0 0 0 .253.349c.124.09.27.155.426.19.156.036.32.04.479.014h-.008v.006Zm-1.212 8.775c.2-.003.393-.07.542-.187l.572-.5c1.081-.94 2.544-1.468 4.069-1.468 1.524 0 2.987.527 4.069 1.468l.571.5c.138.12.323.186.517.187h.024c.2-.003.393-.07.543-.187l.607-.532c1.078-.93 2.531-1.451 4.045-1.45 1.586 0 3.02.56 4.062 1.465l.557.487a.88.88 0 0 0 .54.203h.003c.2-.004.394-.07.543-.188l.557-.487c1.082-.94 2.544-1.468 4.069-1.468s2.987.527 4.07 1.468l.57.5a.79.79 0 0 0 .517.187h.026-.002c.2-.003.394-.07.543-.187l.571-.5a5.818 5.818 0 0 1 1.931-1.109l.038-.012c.05-.088.115-.157.165-.244l5.923-10.569a.865.865 0 0 0 .102-.515.905.905 0 0 0-.218-.487l.002.002a1.102 1.102 0 0 0-.49-.309 1.244 1.244 0 0 0-.603-.035l.007-.002-42.061 7.984c-.19.037-.366.109-.52.212-.154.102-.28.233-.37.382a1.039 1.039 0 0 0-.06.978l-.003-.008 1.345 2.988a6.7 6.7 0 0 1 2.117 1.235.56.56 0 0 0 .2.146.637.637 0 0 0 .255.052l.06-.002h-.003l-.002.002Zm39.369 4.394c-.81-.702-1.922-1.133-3.15-1.133-1.229 0-2.343.433-3.15 1.135l-.572.5a2.215 2.215 0 0 1-1.444.519c-.54 0-1.06-.187-1.444-.519l-.571-.5c-.81-.702-1.922-1.133-3.15-1.133-1.229 0-2.343.433-3.15 1.135l-.558.488a2.208 2.208 0 0 1-1.44.516h-.014c-.268 0-.532-.046-.779-.138a2.021 2.021 0 0 1-.655-.393l-.56-.49c-.84-.728-1.975-1.136-3.159-1.135-1.223 0-2.33.427-3.143 1.12l-.607.532a2.215 2.215 0 0 1-1.444.519c-.54 0-1.06-.186-1.444-.519l-.571-.5c-.81-.702-1.922-1.135-3.153-1.135-1.23 0-2.342.433-3.152 1.135l-.571.5a2.215 2.215 0 0 1-1.444.519c-.541 0-1.06-.186-1.444-.519-.958-.825-2.274-1.335-3.727-1.335-1.452 0-2.766.51-3.726 1.335a1.057 1.057 0 0 0-.266.343.94.94 0 0 0 0 .814c.062.128.152.245.266.343.226.2.532.312.853.315h.01c.315 0 .618-.108.842-.302.265-.233.58-.418.926-.544a3.203 3.203 0 0 1 1.093-.191c.375 0 .747.065 1.093.191.347.126.661.31.926.544.81.7 1.921 1.133 3.15 1.133 1.229 0 2.343-.433 3.15-1.133l.572-.5a2.214 2.214 0 0 1 1.444-.52c.54 0 1.059.187 1.444.52l.571.5c.8.7 1.905 1.133 3.126 1.133h.026-.002.007c1.22 0 2.324-.427 3.129-1.12l.623-.532a2.215 2.215 0 0 1 1.445-.519c.54 0 1.059.186 1.444.519l.557.487c.805.709 1.919 1.146 3.15 1.148h.026c1.221 0 2.326-.433 3.124-1.133l.557-.488a2.215 2.215 0 0 1 1.444-.518c.54 0 1.06.186 1.444.518l.571.5c.81.7 1.922 1.134 3.15 1.134 1.229 0 2.343-.434 3.15-1.134l.572-.5a2.215 2.215 0 0 1 1.444-.518c.54 0 1.06.186 1.444.518.217.188.514.302.845.302h.026a1.3 1.3 0 0 0 .456-.081c.144-.055.274-.134.383-.233a1.05 1.05 0 0 0 .269-.342.932.932 0 0 0 0-.814 1.05 1.05 0 0 0-.267-.342l.005-.002Z"/></svg>