<svg xmlns="http://www.w3.org/2000/svg" width="28" height="28" fill="none"><path fill="#000" d="M3.044 7.31c.213-.287.494-.675.72-.953.674-.765.761-.865 1.375-1.431.182-.15.398-.33.609-.498-1.558 1.318-1.756 2.777-.327 3.68-.002 0-.002 0-.002.002 1.998 1.204 6.378.943 9.834-.599 3.347-1.493 4.582-3.63 2.93-4.899-1.45-.272-3.179-.303-5.008-.058l-.19-.314.157-.52c1.076-.097 2.098-.074 2.98.077.213.036.495.098.705.142.406.1.626.159.891.244.27.08.502.16.904.31.395.155.565.225.881.383a9.7 9.7 0 0 1 1.03.547c2.632 1.655.995 4.676-3.65 6.746-4.63 2.062-10.533 2.387-13.178.751-.001-.002-.005-.005-.012-.007h.005c-1.444-.915-1.596-2.242-.654-3.603Zm12.05 11.574-.037-1.86-1.322-1.47c-4.367.99-8.659.777-11.046-.629-.008-.01-.028-.019-.036-.028-1.351-.832-1.685-1.905-1.583-3.072-.317 1.707-.342 2.323-.297 3.784.056.914.585 1.758 1.648 2.423l.008.01c2.544 1.581 7.846 1.924 12.665.842Zm5.513 2.129c-6.164 2.472-13.878 2.618-17.229.33.362.884.855 1.71 1.461 2.448 3.075 2.1 10.156 1.965 15.81-.304 3.31-1.326 5.399-3.091 5.947-4.746l.154-.498c.366-1.262.434-2.313.493-3.249-.067 2.031-2.46 4.341-6.636 6.019ZM7 25.774c.194.184.803.932 3.888 1.758.835.184 2.935.776 6.814-.084l.023-.353-.307-.481c-3.599.852-7.597.567-10.418-.84Zm8.906-14.71 3.277 2.483s.702.505.04.86c-.659.351-2.352 1.211-2.352 1.211l-1.672-.624-.838.373 1.479 1.285.011 1.998.87-.386.576-1.688s1.77-.681 2.472-.938c.706-.25.611.608.611.608l-.347 4.096 1.155-.513 1.901-5.527s1.009-.49 1.718-.92c.708-.43.95-1.145.95-1.145s-.69-.297-1.486-.058c-.795.237-1.832.659-1.832.659l-5.381-2.285-1.152.51Zm-6.933-7.86 2.225 1.773.607-.091-1.21-1.59s-.264-.33.09-.407c.357-.08 1.26-.264 1.26-.264l.68.542.457-.067-.518-.824.273-.913-.442.064-.524.695s-.92.087-1.281.117c-.364.028-.208-.363-.208-.363L11.081 0l-.611.09-1.61 2.344s-.537.098-.926.208c-.39.11-.595.411-.595.411s.286.231.689.223c.406-.008.946-.071.946-.071ZM19.97 25.977l-1.44-.753-.331.116.852.763s.183.155-.009.238c-.191.082-.679.282-.679.282l-.402-.18-.24.087.335.357-.032.521.25-.086.186-.424s.506-.15.708-.204c.2-.055.155.181.155.181L19.133 28l.333-.116.652-1.488s.288-.113.495-.217a.654.654 0 0 0 .288-.295s-.183-.1-.41-.05c-.227.047-.521.142-.521.142Z"/></svg>