<svg xmlns="http://www.w3.org/2000/svg" width="86" height="86" fill="none"><path fill="#88B154" d="M43.691 62.276S3.224 74.632 3.137 75.526c-.087.893 16.199 8.076 43.417 7.7 25.96-.357 35.992-6.981 36.167-7.7.174-.72-38.136-13.431-39.03-13.25Z"/><path fill="#9EA2A3" d="m41.83 28.32-2.895-3.642s-4.676 4.904-5.94 6.241c-1.262 1.338-2.237 2.11-2.841 3.366-.867 1.794-3.615 17.281-3.615 17.281l-7.948 8.163s-1.499-.934-1.868-.631c-.37.302-12.544 14.815-12.544 14.815l-1.048 1.606s2.419.537 3.164.463c.363-.034 2.15-.443 4.173-.652 2.13-.221 4.85-.04 5.153-.073.343-.034 1.525-.383 1.525-.383l10.575-6.31 8.399-.322 8.237 1.733 15.594.746 8.54-12.772-18.564-24.584-8.096-5.046Z"/><path fill="#717A7C" d="m19.183 65.689-.504-1.438c-.215-.611-.088-4.522-.088-4.522s4.845 2.863 5.382 3.333c.538.47 5.335 3.46 5.335 3.46l2.889-.074.584 1.297s-4.159 1.975-5.53 2.412c-1.37.43-10.151 4.898-10.138 4.73.027-.35 2.285-3.581 2.285-3.581l-.215-5.617Z"/><path fill="#798082" d="M54.241 69.513 21.145 74.74s-1.6 1.417-1.438 1.794c.161.376 6.268 1.511 8.378 1.78 2.11.269 16.535 1.082 18.1.974 1.566-.107 17.563-.92 19.78-1.189 2.218-.269 9.669-.786 10.16-1.008.946-.43 5.293-2.775 5.293-2.775s-4.864-7.672-5.838-9.513c-.974-1.835-2.594-5.133-3.729-6.269-1.135-1.135-1.948-1.62-1.948-1.62s-1.532-3.56-3.32-5.831c-1.78-2.271-4.219-5.946-4.79-6.51-2.143-2.137-2.204-2.339-2.204-2.339l1.344 16.193s-2.486 4.971-3.353 6.322c-.853 1.364-3.339 4.764-3.339 4.764Z"/><path fill="#717A7C" d="m42.349 18.558-.652 13.182 7.666 4.757s2.305 5.905 2.412 6.45c.108.537-.1 1.995.115 2.371.215.377 4.185 3.111 4.34 3.118.88.047 2.7-.269 2.593-.43-.107-.161.726-3.669.726-3.669s-5.267-8.54-6.403-10.918c-1.136-2.378-5.402-8.54-5.892-9.567-.49-1.028-2.809-4.434-3.3-4.972-.49-.537-1.276-.699-1.605-.322Z"/><path fill="silver" d="M45.702 43.705s3.62-5.966 3.728-6.88c.108-.914-2.916-6.484-3.675-8.486-.759-2.002-2.754-6.107-2.97-6.645-.214-.537-.43-3.13-.43-3.13s-1.511 1.619-2.055 2.915c-.538 1.297-2.574 4.489-2.574 4.489s1.277 7.404 1.767 10.588c.484 3.192.847 7.378.773 7.532-.463.94-3.581 8.52-3.581 8.52s-.403 3.675-.027 4.05c.376.377 2.56.874 2.728.619.33-.49.322-2.352.322-2.352s6.06-8.183 6.256-8.586c.074-.155-.262-2.634-.262-2.634Zm-12.35.585c-.02-.813-1.209-4.67-1.424-5.537-.215-.866-.672-5.146-1.27-5.146-.591 0-3.332 7.538-3.608 8.244-.268.705-4.105 8.97-4.595 9.943-.484.975-2.701 5.187-3.131 5.893-.43.705-1.001 1.901-1.001 1.901l10.978 6.94 3.964-.45s-2.318-6.228-2.862-7.632-1.19-3.675-1.19-3.675 1.257-3.01 2.077-5.174c.826-2.177 2.09-4.501 2.063-5.307Zm-16.34 14.814c.027.101.168 2.634.095 4.146-.074 1.518-.37 3.037-.37 3.037l-4.891 5.106-.155 1.149s-7.43 2.627-7.914 2.775c-.484.148-.639.201-.639.201s-1.008-.611 2.01-3.903c3.896-4.253 8.881-10.078 9.513-10.81 1.122-1.297 2.278-2.003 2.351-1.7Z"/><path fill="#33632C" d="M71.695 67.066c-.403-.168-1.43 4.381-1.646 5.987-.215 1.606-.786 4.656-.638 4.958.43.854 5.012.29 5.456-.443.127-.208-.518-3.628-.982-5.073-.631-1.975-1.148-4.992-2.19-5.429Zm8.03-5.73c-.632.026-1.304 5.542-1.72 6.745-.471 1.364-2.043 7.82-1.392 8.56.652.739 3.145.154 4.072-.115.894-.255 1.666-.685 1.881-1.162.215-.477-.296-4.327-.914-7.014-.631-2.721-.933-7.062-1.928-7.015Z"/><path fill="silver" d="M21.144 74.746s1.74.659 7.7 1.028c5.959.37 8.888.336 8.888.336l13.612-1.989 3.091-4.891s-4.112-.154-6.295-.228c-2.184-.074-5.443-.088-5.59-.49-.148-.41 3.675-3.186 4.75-3.737 1.075-.557 3.668-.853 4.26-1.478.59-.631 8.062-4.844 8.982-4.877.928-.04 3.817 1.74 4.368 1.552.557-.189-1.922-6.746-2.251-7.976-.027-.107-1.337-6.497-1.378-6.618-.309-.947-1.256-3.406-1.854-3.11-.591.295-1.592 2.553-2.331 4.81-.74 2.258-1.183 3.447-1.552 3.998-.37.55-4.663 3.299-5.261 3.924-.591.631-2.372 1.962-3.447 2.405-1.075.443-2.11.443-2.889 1.149-.78.705-1.74 1.928-2.815 3.07-1.075 1.15-3.259 3.783-3.978 4.428-.719.645-1.364 1.27-1.364 1.27s-5.193 1.471-6.94 2.318c-1.733.853-8.157 4.992-7.706 5.106Z"/><path fill="#fff" d="M75.109 34.951c-.572.571-.592 1.478.04 1.996.558.463 1.478.161 1.82-.256.343-.416.303-1.323-.154-1.78-.457-.457-1.364-.302-1.706.04Z"/><path fill="#fff" d="M75.297 43.45c-.611.672-.41 1.673.155 2.043.564.37 1.41.336 1.827-.175.37-.457.41-1.37-.154-1.935-.49-.49-1.431-.37-1.828.067Z" opacity=".5"/><path fill="#fff" d="M57.782 21.54c-.175.558.174 1.19.705 1.283.558.101 1.129-.06 1.283-.591.155-.537-.04-1.21-.806-1.344-.766-.134-1.095.35-1.182.652Z" opacity=".6"/><path fill="#fff" d="M63.519 30.98s.497-1.828.86-1.888c.362-.06 1.088 1.962 1.088 1.962s1.807.06 1.868.343c.06.288-1.277 1.37-1.277 1.37s.497 1.693.29 1.908c-.21.209-1.869-.86-1.869-.86s-1.485 1.257-1.827 1.028c-.343-.228.289-2.116.289-2.116s-1.411-1.008-1.431-1.35c-.027-.343 2.009-.397 2.009-.397Zm-40.985-5.032s.652-1.875 1.048-1.895c.39-.02.961 1.874.961 1.874s1.935.02 2.07.303c.167.363-1.244 1.592-1.244 1.592s.457 1.828.242 2.05c-.242.241-1.915-.72-1.915-.72s-1.72 1.196-2.09.874c-.322-.282.35-2.224.35-2.224s-1.612-1.176-1.525-1.505c.114-.457 2.103-.35 2.103-.35Z"/><path fill="#fff" d="M7.968 30.98c-.403-.02-.954.383-.954 1.075 0 .51.49.934.913.934.612 0 1.035-.463 1.015-.994-.027-.692-.551-.995-.974-1.015Z" opacity=".5"/><path fill="#fff" d="M12.41 41.004c.04.766.423 1.418 1.418 1.391.994-.027 1.814-1.552.867-2.446-.948-.893-2.339.027-2.285 1.055Zm-6.598 9.373c.47.524 1.6.316 1.626-.605.027-.84-.396-1.236-1.182-1.129-.78.108-1.015 1.096-.444 1.734Zm13.31 10.333-1.23-1.558-2.398 1.101-5.577 9.017 1.909 2.15s4.67-2.567 5.166-2.667c.746-.155 3.245-.054 3.245-.054l-1.115-7.989Z"/><path fill="#8CC2EA" d="m19.304 68.686 3.776.067s4.03 1.256 5.778.887c1.747-.37 3.722-1.982 3.722-1.982s1.525-.618.766-1.499c-.175-.201-1.317-.517-4.428-1.296-3.11-.78-3.514-1.384-3.514-1.384s-3.621-2.513-4.918-3.487c-1.297-.975-2.58-.988-2.58-.988s.833 3.077 1.021 4.925c.182 1.847.377 4.757.377 4.757Z"/><path fill="#C6E4F7" d="M3.87 73.194c-.47.57 2.95-.457 4.26-.773 1.673-.403 3.709-1.015 3.709-1.015l.537-4.085s3.5-6.288 3.958-6.812c.456-.524 2.23-1.404 2.23-1.404s-1.061-.531-1.794-.572c-1.243-.067-3.614 2.695-4.85 4.314a455.428 455.428 0 0 0-3.374 4.542s-1 .269-2.022 1.706a61.16 61.16 0 0 0-2.654 4.099Z"/><path fill="#33632C" d="M26.74 60.865c-.456-.047-1.034 1.478-1.343 2.614-.222.8-1.653 4.85-1.821 5.637-.175.793-1.061 3.13-.82 3.238.242.101 1.028.283 1.445.115.107-.04 1.565-1.048 2.62-1.68 1.055-.632 2.096-1.203 2.096-1.243 0-.41-.806-4.186-.893-4.69-.249-1.444-.571-3.917-1.283-3.99Z"/><path fill="#33632C" d="M30.846 62.383c-.397.135-.887 1.667-1.35 3.252-.296 1.001-1.156 4.005-.948 4.152.208.148 2.244.175 3.104-.255.826-.416 1.417-.94 1.525-1.236.108-.296-.833-2.903-1.196-3.857-.282-.719-.719-2.203-1.135-2.056Z"/><path fill="#9EA2A3" d="M31.303 47.334 23 50.646l-.665 1.431s1.29 1.445 2.19 2.42c.78.839 2.863 1.954 3.232 2.707.726 1.478 3.568 2.996 4.985 3.709 1.418.712 1.478-.121 1.478-.121l-2.916-13.458Zm3.541 19.498-1.653 1.203s1.781 1.189 3.098 1.585c1.317.396 3.426 1.183 5.664 1.579 2.237.396 4.347.134 5.791.262 1.452.134 4.408 1.6 4.408 1.6s.625-1.284 1.25-2.171c.624-.88.833-1.37.833-1.37l-5.684-1.237-13.707-1.451Z"/><path fill="#33632C" d="M51.412 71.24c-.484.04-1.163 3.668-1.404 4.474-.135.457-1.257 3.58-.955 4.105.605 1.075 5.577.786 5.799.222.215-.565-1.418-4.34-1.72-5.04-.31-.685-1.008-3.822-1.72-3.762Z"/><path fill="#fff" d="m30.86 33.21-7.33 17.967s.456.712 1.101 1.491c.652.78 3.05 2.721 3.83 3.306.78.585.846 1.102 1.814 1.754.974.651 4.475 2.338 5.71 2.983l3.306 1.753s-2.076 2.144-2.66 2.983c-.585.847-1.082 1.667-1.082 1.667l10.743 1.639s18.732-8.385 18.611-8.795c-.12-.41-.772-9.493-1.162-9.95-.39-.457-4.347-6.813-4.347-6.813l-3.957-.585-6.229-11.805-6.55-10.703-4.475 6.941-2.399 4.408-4.924 1.76Z"/><path fill="#8CC2EA" d="M39.359 58.567c-.074.45 1.102 2.338 1.619 2.27.517-.066 3.568-2.72 4.347-3.244.78-.518 5.321-3.44 6.356-4.085 1.035-.652 3.763-3.03 3.957-3.373.256-.464 1.069-4.636 1.23-5.187.074-.242 1.612-1.451 1.78-1.243.336.41 1.787 4.421 2.11 5.523.322 1.102 2.271 8.889 2.399 9.406.195.766 1.619 2.204 2.788 1.492 1.169-.712 4.374-1.996 4.75-2.607.202-.323-2.566-4.387-4.051-6.51-1.485-2.124-2.863-4.354-4.233-6.256-1.122-1.559-1.821-2.526-2.567-2.922-.752-.397-1.39.524-1.39.524s-5.483-9.48-6.457-11.167c-.974-1.686-6.128-9.782-7.411-11.643-.84-1.223-1.364-1.58-2.15-1.13-.786.444-.363 3.757-.363 3.757s7.344 14.055 7.008 14.982c-.343.927-3.05 5.906-4.542 8.89-1.485 2.99-4.985 11.36-5.18 12.523Z"/><path fill="#C6E4F7" d="M31.532 34.662c.537-.806 5.167 9.635 6.336 9.762 1.169.128 1.948-7.975 1.814-9.796-.128-1.814 0-7.847.517-9.144.517-1.297 1.881-3.306 1.881-3.306s.76-1.612.833-2.042c.222-1.243-.073-1.895-.073-1.895s-.76.175-1.479 1.15c-.712.973-3.648 6.57-3.648 6.57s-3.682 3.682-4.717 4.394c-1.034.712-2.533 1.62-2.855 2.204-.322.584-2.855 7.626-4.085 10.44-1.532 3.521-3.01 6.518-3.064 7.647-.013.221 1.21 1.491 1.21 1.491s1.028-1.975 2.257-5.213c1.23-3.239 4.542-11.456 5.073-12.262Zm4.784 31.262s-.975 1.27-.86 1.465c.322.55 5.072 1.942 5.912 2.076.84.134 5.644.584 7.263.457 1.62-.128 5.603-.41 5.603-.41s2.634-3.158 3.28-3.682c.65-.517 4.084-1.814 4.084-1.814l4.246-3.83s-1.236-.087-1.847-.45c-.612-.363-.84-1.108-.84-1.108s-2.983 1.686-4.22 2.338c-1.229.651-5.966 2.203-7.33 2.983-1.364.78-5.186 2.721-5.186 2.721s-6.746.517-7.398.323c-.638-.182-2.707-1.069-2.707-1.069Z"/><path fill="#fff" d="M23.872 13.491c-.612.672-.41 1.673.154 2.043.565.37 1.411.336 1.828-.175.37-.457.41-1.37-.155-1.935-.49-.484-1.438-.363-1.827.067Z" opacity=".5"/></svg>